<svg width="396" height="191" viewBox="0 0 396 191" fill="none" xmlns="http://www.w3.org/2000/svg">
<mask id="mask0_102_3174" style="mask-type:alpha" maskUnits="userSpaceOnUse" x="0" y="0" width="396" height="191">
<rect width="396" height="191" rx="10" fill="#EAFBFF"/>
</mask>
<g mask="url(#mask0_102_3174)">
<rect width="396" height="191" rx="10" fill="#EAFBFF"/>
<path d="M185 191.5C185 180.929 182.918 170.461 178.872 160.694C174.827 150.927 168.897 142.053 161.422 134.578C153.947 127.103 145.073 121.173 135.306 117.128C125.539 113.082 115.071 111 104.5 111C93.9286 111 83.4607 113.082 73.694 117.128C63.9273 121.173 55.053 127.103 47.5779 134.578C40.1028 142.053 34.1732 150.927 30.1277 160.694C26.0822 170.461 24 180.929 24 191.5L62.2725 191.5C62.2725 185.955 63.3647 180.463 65.4869 175.34C67.609 170.217 70.7195 165.562 74.6406 161.641C78.5618 157.719 83.217 154.609 88.3402 152.487C93.4635 150.365 98.9546 149.272 104.5 149.272C110.045 149.272 115.537 150.365 120.66 152.487C125.783 154.609 130.438 157.719 134.359 161.641C138.281 165.562 141.391 170.217 143.513 175.34C145.635 180.464 146.728 185.955 146.728 191.5L185 191.5Z" fill="#CAF6FF"/>
</g>
</svg>
