<svg width="16" height="16" viewBox="0 0 16 16" fill="none" xmlns="http://www.w3.org/2000/svg">
<path d="M7.76864 2.63417L2.07025 7.30083V13.8333H6.14052V10.5H9.39675V13.8333H13.467V7.70167C13.4671 7.57669 13.4397 7.45331 13.3868 7.34065C13.334 7.22799 13.2571 7.12894 13.1618 7.05083L7.76864 2.63417ZM7.76864 0.5L14.1785 5.75C14.4643 5.98407 14.6951 6.28091 14.8538 6.61859C15.0124 6.95626 15.0949 7.32613 15.0951 7.70083V13.8333C15.0951 14.2754 14.9236 14.6993 14.6183 15.0118C14.3129 15.3244 13.8988 15.5 13.467 15.5H2.07025C1.63845 15.5 1.22433 15.3244 0.919001 15.0118C0.613671 14.6993 0.442139 14.2754 0.442139 13.8333V7.30083C0.442169 7.05103 0.497054 6.80442 0.602734 6.57926C0.708414 6.35409 0.862187 6.15613 1.05268 6L7.76864 0.5Z" fill="black"/>
</svg>
