<svg width="240" height="40" viewBox="0 0 240 40" fill="none" xmlns="http://www.w3.org/2000/svg">
<path d="M11.853 31.0897C9.64983 31.0897 7.53137 30.7366 5.49765 30.0304C3.49218 29.3243 1.93865 28.3922 0.837052 27.2341L2.06576 24.819C3.13911 25.8924 4.56553 26.768 6.34504 27.4459C8.12454 28.0956 9.96053 28.4204 11.853 28.4204C14.5082 28.4204 16.4995 27.9402 17.8271 26.9799C19.1546 25.9912 19.8184 24.7202 19.8184 23.1666C19.8184 21.9803 19.4512 21.0341 18.7168 20.3279C18.0107 19.6218 17.135 19.0851 16.0899 18.7179C15.0448 18.3224 13.5902 17.8987 11.7259 17.4468C9.49447 16.8819 7.71497 16.3452 6.38741 15.8368C5.05984 15.3001 3.91587 14.4951 2.95551 13.4217C2.02339 12.3484 1.55733 10.8937 1.55733 9.05772C1.55733 7.56068 1.95277 6.20487 2.74366 4.99029C3.53455 3.74746 4.74913 2.75885 6.38741 2.02445C8.02568 1.29005 10.0594 0.922854 12.4886 0.922854C14.1833 0.922854 15.8357 1.16295 17.4457 1.64313C19.084 2.09507 20.4963 2.7306 21.6827 3.54974L20.6234 6.04952C19.3806 5.23038 18.053 4.62309 16.6407 4.22764C15.2284 3.80395 13.8444 3.59211 12.4886 3.59211C9.88992 3.59211 7.92682 4.10054 6.59925 5.11739C5.29993 6.10601 4.65027 7.3912 4.65027 8.97299C4.65027 10.1593 5.00335 11.1197 5.7095 11.8541C6.4439 12.5602 7.34777 13.111 8.42112 13.5065C9.52272 13.8737 10.9915 14.2832 12.8275 14.7352C15.0025 15.2719 16.7537 15.8085 18.0813 16.3452C19.4371 16.8536 20.5811 17.6445 21.5132 18.7179C22.4453 19.763 22.9114 21.1894 22.9114 22.9972C22.9114 24.4942 22.5018 25.8641 21.6827 27.107C20.8918 28.3215 19.6631 29.296 17.9965 30.0304C16.33 30.7366 14.2822 31.0897 11.853 31.0897ZM50.6307 16.0063H53.6389V27.3188C52.2548 28.5334 50.6166 29.4655 48.7241 30.1152C46.8316 30.7648 44.8402 31.0897 42.75 31.0897C39.7842 31.0897 37.1149 30.44 34.7423 29.1407C32.3696 27.8414 30.5054 26.0477 29.1495 23.7598C27.7937 21.4436 27.1158 18.8591 27.1158 16.0063C27.1158 13.1534 27.7937 10.583 29.1495 8.29508C30.5054 5.9789 32.3696 4.17115 34.7423 2.87183C37.1149 1.57251 39.7983 0.922854 42.7924 0.922854C45.0521 0.922854 47.1282 1.29005 49.0207 2.02445C50.9132 2.7306 52.5091 3.78983 53.8084 5.20213L51.8594 7.19348C49.515 4.8773 46.535 3.71921 42.9195 3.71921C40.5186 3.71921 38.3436 4.25589 36.3947 5.32924C34.4739 6.37435 32.9628 7.84314 31.8612 9.73563C30.7596 11.5999 30.2088 13.6901 30.2088 16.0063C30.2088 18.3224 30.7596 20.4126 31.8612 22.2769C32.9628 24.1411 34.4739 25.6099 36.3947 26.6833C38.3154 27.7566 40.4762 28.2933 42.8771 28.2933C45.9277 28.2933 48.5122 27.5307 50.6307 26.0054V16.0063Z" fill="#040404"/>
<path d="M92.7995 15.6673H98.011V27.4883C96.4857 28.7029 94.7062 29.635 92.6724 30.2847C90.6387 30.9343 88.5485 31.2591 86.4018 31.2591C83.3795 31.2591 80.6537 30.6095 78.2246 29.3102C75.7954 27.9826 73.8888 26.1607 72.5047 23.8445C71.1207 21.5284 70.4287 18.9156 70.4287 16.0063C70.4287 13.0969 71.1207 10.4842 72.5047 8.16797C73.8888 5.85179 75.7954 4.04404 78.2246 2.74472C80.682 1.41716 83.436 0.753377 86.4866 0.753377C88.9722 0.753377 91.2319 1.16294 93.2656 1.98208C95.2993 2.80122 97.0082 4.00168 98.3923 5.58346L94.918 8.97299C92.6583 6.7133 89.9326 5.58346 86.7408 5.58346C84.6506 5.58346 82.7863 6.02127 81.148 6.8969C79.538 7.77253 78.2669 9.00123 77.3348 10.583C76.4309 12.1648 75.979 13.9725 75.979 16.0063C75.979 17.9835 76.4309 19.763 77.3348 21.3448C78.2669 22.9265 79.538 24.1694 81.148 25.0732C82.7863 25.9771 84.6364 26.4291 86.6984 26.4291C89.0146 26.4291 91.0483 25.9206 92.7995 24.9038V15.6673ZM109.809 11.5151C111.334 9.14246 114.018 7.95613 117.859 7.95613V12.9981C117.407 12.9133 116.998 12.8709 116.631 12.8709C114.569 12.8709 112.959 13.4782 111.8 14.6928C110.642 15.8792 110.063 17.6022 110.063 19.8618V30.8354H104.767V8.21034H109.809V11.5151ZM132.314 31.132C130.026 31.132 127.964 30.6377 126.128 29.6491C124.292 28.6605 122.851 27.2906 121.806 25.5393C120.789 23.7598 120.281 21.7543 120.281 19.5229C120.281 17.2915 120.789 15.3001 121.806 13.5488C122.851 11.7976 124.292 10.4277 126.128 9.43905C127.964 8.45043 130.026 7.95613 132.314 7.95613C134.63 7.95613 136.706 8.45043 138.542 9.43905C140.378 10.4277 141.804 11.7976 142.821 13.5488C143.866 15.3001 144.389 17.2915 144.389 19.5229C144.389 21.7543 143.866 23.7598 142.821 25.5393C141.804 27.2906 140.378 28.6605 138.542 29.6491C136.706 30.6377 134.63 31.132 132.314 31.132ZM132.314 26.5985C134.263 26.5985 135.873 25.9489 137.144 24.6496C138.415 23.3502 139.05 21.6414 139.05 19.5229C139.05 17.4044 138.415 15.6956 137.144 14.3962C135.873 13.0969 134.263 12.4473 132.314 12.4473C130.365 12.4473 128.755 13.0969 127.484 14.3962C126.241 15.6956 125.619 17.4044 125.619 19.5229C125.619 21.6414 126.241 23.3502 127.484 24.6496C128.755 25.9489 130.365 26.5985 132.314 26.5985ZM159.834 31.132C157.489 31.132 155.385 30.6377 153.521 29.6491C151.657 28.6605 150.202 27.2906 149.157 25.5393C148.112 23.7598 147.589 21.7543 147.589 19.5229C147.589 17.2915 148.112 15.3001 149.157 13.5488C150.202 11.7976 151.642 10.4277 153.478 9.43905C155.343 8.45043 157.461 7.95613 159.834 7.95613C162.065 7.95613 164.014 8.40806 165.681 9.31194C167.375 10.2158 168.647 11.5151 169.494 13.2099L165.426 15.5826C164.777 14.5375 163.958 13.7607 162.969 13.2523C162.009 12.7156 160.949 12.4473 159.791 12.4473C157.814 12.4473 156.176 13.0969 154.877 14.3962C153.577 15.6673 152.928 17.3762 152.928 19.5229C152.928 21.6696 153.563 23.3926 154.834 24.6919C156.134 25.963 157.786 26.5985 159.791 26.5985C160.949 26.5985 162.009 26.3443 162.969 25.8359C163.958 25.2992 164.777 24.5083 165.426 23.4632L169.494 25.8359C168.618 27.5307 167.333 28.8441 165.638 29.7762C163.972 30.6801 162.037 31.132 159.834 31.132ZM195.01 19.65C195.01 20.0172 194.982 20.5398 194.926 21.2177H177.173C177.484 22.8842 178.289 24.2117 179.588 25.2004C180.916 26.1607 182.554 26.6409 184.503 26.6409C186.989 26.6409 189.036 25.8218 190.646 24.1835L193.485 27.4459C192.468 28.6605 191.183 29.5785 189.63 30.1999C188.076 30.8213 186.325 31.132 184.376 31.132C181.89 31.132 179.701 30.6377 177.809 29.6491C175.916 28.6605 174.447 27.2906 173.402 25.5393C172.385 23.7598 171.877 21.7543 171.877 19.5229C171.877 17.3197 172.371 15.3425 173.36 13.5912C174.377 11.8117 175.775 10.4277 177.554 9.43905C179.334 8.45043 181.339 7.95613 183.571 7.95613C185.774 7.95613 187.737 8.45043 189.46 9.43905C191.211 10.3994 192.567 11.7693 193.527 13.5488C194.516 15.3001 195.01 17.3338 195.01 19.65ZM183.571 12.193C181.876 12.193 180.435 12.7015 179.249 13.7183C178.091 14.7069 177.385 16.0345 177.131 17.701H189.968C189.743 16.0628 189.05 14.7352 187.892 13.7183C186.734 12.7015 185.294 12.193 183.571 12.193ZM205.14 11.5151C206.665 9.14246 209.348 7.95613 213.19 7.95613V12.9981C212.738 12.9133 212.328 12.8709 211.961 12.8709C209.899 12.8709 208.289 13.4782 207.131 14.6928C205.973 15.8792 205.394 17.6022 205.394 19.8618V30.8354H200.098V8.21034H205.14V11.5151ZM239.695 8.21034L229.102 32.6573C228.114 35.1147 226.913 36.8377 225.501 37.8264C224.089 38.8432 222.38 39.3516 220.374 39.3516C219.244 39.3516 218.129 39.168 217.027 38.8008C215.926 38.4336 215.022 37.9252 214.315 37.2756L216.434 33.3776C216.942 33.8578 217.536 34.2391 218.213 34.5216C218.92 34.804 219.626 34.9453 220.332 34.9453C221.264 34.9453 222.027 34.7052 222.62 34.225C223.241 33.7448 223.806 32.9398 224.315 31.8099L224.696 30.9202L214.824 8.21034H220.332L227.45 24.9461L234.61 8.21034H239.695Z" fill="#55AB60"/>
</svg>
