<svg width="124" height="22" viewBox="0 0 124 22" fill="none" xmlns="http://www.w3.org/2000/svg">
<path d="M119.382 14.168C118.607 14.168 117.856 14.0653 117.128 13.86C116.409 13.6453 115.831 13.37 115.392 13.034L116.162 11.326C116.582 11.634 117.081 11.8813 117.66 12.068C118.239 12.2547 118.817 12.348 119.396 12.348C120.04 12.348 120.516 12.2547 120.824 12.068C121.132 11.872 121.286 11.6153 121.286 11.298C121.286 11.0647 121.193 10.8733 121.006 10.724C120.829 10.5653 120.595 10.4393 120.306 10.346C120.026 10.2527 119.643 10.15 119.158 10.038C118.411 9.86067 117.8 9.68333 117.324 9.506C116.848 9.32867 116.437 9.044 116.092 8.652C115.756 8.26 115.588 7.73733 115.588 7.084C115.588 6.51467 115.742 6.00133 116.05 5.544C116.358 5.07733 116.82 4.70867 117.436 4.438C118.061 4.16733 118.822 4.032 119.718 4.032C120.343 4.032 120.955 4.10667 121.552 4.256C122.149 4.40533 122.672 4.62 123.12 4.9L122.42 6.622C121.515 6.10867 120.609 5.852 119.704 5.852C119.069 5.852 118.598 5.95467 118.29 6.16C117.991 6.36533 117.842 6.636 117.842 6.972C117.842 7.308 118.015 7.56 118.36 7.728C118.715 7.88667 119.251 8.04533 119.97 8.204C120.717 8.38133 121.328 8.55867 121.804 8.736C122.28 8.91333 122.686 9.19333 123.022 9.576C123.367 9.95867 123.54 10.4767 123.54 11.13C123.54 11.69 123.381 12.2033 123.064 12.67C122.756 13.1273 122.289 13.4913 121.664 13.762C121.039 14.0327 120.278 14.168 119.382 14.168Z" fill="white"/>
<path d="M10.08 14L10.066 8.12L7.182 12.964H6.16L3.29 8.246V14H1.162V4.2H3.038L6.706 10.29L10.318 4.2H12.18L12.208 14H10.08Z" fill="white"/>
<path d="M6.515 22C7.35171 22 8.03 21.3284 8.03 20.5C8.03 19.6716 7.35171 19 6.515 19C5.67829 19 5 19.6716 5 20.5C5 21.3284 5.67829 22 6.515 22Z" fill="white"/>
<path d="M25.192 6.048H22.056V4.2H30.596V6.048H27.46V14H25.192V6.048Z" fill="white"/>
<path d="M26.515 22C27.3517 22 28.03 21.3284 28.03 20.5C28.03 19.6716 27.3517 19 26.515 19C25.6783 19 25 19.6716 25 20.5C25 21.3284 25.6783 22 26.515 22Z" fill="white"/>
<path d="M54.974 4.2L51.768 14H49.332L47.176 7.364L44.95 14H42.528L39.308 4.2H41.66L43.872 11.088L46.182 4.2H48.282L50.522 11.144L52.804 4.2H54.974Z" fill="white"/>
<path d="M47.515 22C48.3517 22 49.03 21.3284 49.03 20.5C49.03 19.6716 48.3517 19 47.515 19C46.6783 19 46 19.6716 46 20.5C46 21.3284 46.6783 22 47.515 22Z" fill="white"/>
<path d="M67.192 6.048H64.056V4.2H72.596V6.048H69.46V14H67.192V6.048Z" fill="white"/>
<path d="M68.515 22C69.3517 22 70.03 21.3284 70.03 20.5C70.03 19.6716 69.3517 19 68.515 19C67.6783 19 67 19.6716 67 20.5C67 21.3284 67.6783 22 68.515 22Z" fill="white"/>
<path d="M84.43 6.02V8.61H88.966V10.43H84.43V14H82.162V4.2H89.568V6.02H84.43Z" fill="white"/>
<path d="M85.515 22C86.3517 22 87.03 21.3284 87.03 20.5C87.03 19.6716 86.3517 19 85.515 19C84.6783 19 84 19.6716 84 20.5C84 21.3284 84.6783 22 85.515 22Z" fill="white"/>
<path d="M102.382 14.168C101.607 14.168 100.856 14.0653 100.128 13.86C99.4093 13.6453 98.8307 13.37 98.392 13.034L99.162 11.326C99.582 11.634 100.081 11.8813 100.66 12.068C101.239 12.2547 101.817 12.348 102.396 12.348C103.04 12.348 103.516 12.2547 103.824 12.068C104.132 11.872 104.286 11.6153 104.286 11.298C104.286 11.0647 104.193 10.8733 104.006 10.724C103.829 10.5653 103.595 10.4393 103.306 10.346C103.026 10.2527 102.643 10.15 102.158 10.038C101.411 9.86067 100.8 9.68333 100.324 9.506C99.848 9.32867 99.4373 9.044 99.092 8.652C98.756 8.26 98.588 7.73733 98.588 7.084C98.588 6.51467 98.742 6.00133 99.05 5.544C99.358 5.07733 99.82 4.70867 100.436 4.438C101.061 4.16733 101.822 4.032 102.718 4.032C103.343 4.032 103.955 4.10667 104.552 4.256C105.149 4.40533 105.672 4.62 106.12 4.9L105.42 6.622C104.515 6.10867 103.609 5.852 102.704 5.852C102.069 5.852 101.598 5.95467 101.29 6.16C100.991 6.36533 100.842 6.636 100.842 6.972C100.842 7.308 101.015 7.56 101.36 7.728C101.715 7.88667 102.251 8.04533 102.97 8.204C103.717 8.38133 104.328 8.55867 104.804 8.736C105.28 8.91333 105.686 9.19333 106.022 9.576C106.367 9.95867 106.54 10.4767 106.54 11.13C106.54 11.69 106.381 12.2033 106.064 12.67C105.756 13.1273 105.289 13.4913 104.664 13.762C104.039 14.0327 103.278 14.168 102.382 14.168Z" fill="white"/>
<path d="M102.515 22C103.352 22 104.03 21.3284 104.03 20.5C104.03 19.6716 103.352 19 102.515 19C101.678 19 101 19.6716 101 20.5C101 21.3284 101.678 22 102.515 22Z" fill="white"/>
</svg>
