<svg width="20" height="27" viewBox="0 0 20 27" fill="none" xmlns="http://www.w3.org/2000/svg">
<path fill-rule="evenodd" clip-rule="evenodd" d="M10.0005 25.8141C5.14621 25.8141 1 25.1153 1 22.3173C1 19.5193 5.1156 16.9351 10.0005 16.9351C14.8548 16.9351 19 19.4943 19 22.2923C19 25.0903 14.8802 25.8141 10.0005 25.8141Z" stroke="white" stroke-width="2" stroke-linecap="round" stroke-linejoin="round"/>
<path fill-rule="evenodd" clip-rule="evenodd" d="M9.99949 13.5436C11.5846 13.5382 13.1028 12.9115 14.2208 11.801C15.3387 10.6905 15.9651 9.18691 15.9624 7.62043C15.9597 6.05395 15.328 4.55255 14.2062 3.44583C13.0844 2.33911 11.5641 1.71753 9.97895 1.71753C8.39382 1.71753 6.87344 2.33911 5.75162 3.44583C4.6298 4.55255 3.99816 6.05395 3.99544 7.62043C3.99271 9.18691 4.61911 10.6905 5.73707 11.801C6.85503 12.9115 8.37322 13.5382 9.95834 13.5436H9.99949Z" stroke="white" stroke-width="2" stroke-linecap="round" stroke-linejoin="round"/>
</svg>
