<svg width="24" height="27" viewBox="0 0 24 27" fill="none" xmlns="http://www.w3.org/2000/svg">
<path d="M3.68494 6.41969C16.5559 4.6636 19.7279 4.87901 21.7269 7.16678C23.7259 9.45454 23.259 17.0037 20.921 19.1037C18.583 21.2037 8.43695 21.4033 5.22095 19.1037C1.82095 16.6726 3.79496 9.19365 3.68396 4.66259C3.75096 2.12777 1.01294 1.71667 1.01294 1.71667" stroke="white" stroke-width="2" stroke-linecap="round" stroke-linejoin="round"/>
<path d="M14.917 11.8806H18.309H14.917Z" fill="#60C370"/>
<path fill-rule="evenodd" clip-rule="evenodd" d="M5.70899 24.119C5.84071 24.1192 5.96945 24.1579 6.07886 24.2304C6.18827 24.3029 6.27345 24.4058 6.32367 24.5262C6.3739 24.6465 6.38692 24.7789 6.36102 24.9065C6.33513 25.0341 6.2715 25.1513 6.17822 25.2432C6.08494 25.3351 5.96621 25.3976 5.83698 25.4228C5.70775 25.448 5.57383 25.4348 5.45221 25.3848C5.33059 25.3348 5.2267 25.2503 5.15369 25.1419C5.08067 25.0336 5.0418 24.9063 5.04199 24.7761C5.04212 24.6897 5.05949 24.6041 5.09308 24.5243C5.12667 24.4445 5.17586 24.372 5.23779 24.311C5.29973 24.25 5.37319 24.2016 5.45404 24.1687C5.53489 24.1357 5.62152 24.1188 5.70899 24.119Z" fill="#60C370"/>
<path fill-rule="evenodd" clip-rule="evenodd" d="M19.479 24.119C19.6108 24.119 19.7396 24.1576 19.8491 24.2299C19.9587 24.3023 20.044 24.4051 20.0944 24.5255C20.1447 24.6458 20.1579 24.7782 20.1321 24.9059C20.1064 25.0336 20.0428 25.1508 19.9496 25.2428C19.8563 25.3348 19.7375 25.3975 19.6083 25.4227C19.479 25.448 19.3451 25.4349 19.2235 25.3849C19.1018 25.3349 18.9978 25.2504 18.9247 25.1421C18.8517 25.0337 18.8128 24.9063 18.813 24.7761C18.8133 24.6017 18.8836 24.4346 19.0084 24.3114C19.1333 24.1881 19.3025 24.119 19.479 24.119Z" fill="#60C370"/>
<path d="M14.917 11.8806H18.309M5.70899 24.119C5.84071 24.1191 5.96945 24.1579 6.07886 24.2304C6.18827 24.3029 6.27345 24.4058 6.32367 24.5262C6.3739 24.6465 6.38692 24.7789 6.36102 24.9065C6.33513 25.0341 6.2715 25.1513 6.17822 25.2432C6.08494 25.3351 5.96621 25.3976 5.83698 25.4228C5.70775 25.448 5.57383 25.4348 5.45221 25.3848C5.33059 25.3348 5.2267 25.2503 5.15369 25.1419C5.08067 25.0336 5.0418 24.9063 5.04199 24.7761C5.04212 24.6897 5.05949 24.6041 5.09308 24.5243C5.12667 24.4445 5.17586 24.372 5.23779 24.311C5.29973 24.25 5.37319 24.2016 5.45404 24.1687C5.53489 24.1357 5.62152 24.1188 5.70899 24.119ZM19.479 24.119C19.6108 24.119 19.7396 24.1576 19.8491 24.2299C19.9587 24.3023 20.044 24.4051 20.0944 24.5255C20.1447 24.6458 20.1579 24.7782 20.1321 24.9059C20.1064 25.0336 20.0428 25.1508 19.9496 25.2428C19.8563 25.3348 19.7375 25.3975 19.6083 25.4227C19.479 25.448 19.3451 25.4349 19.2235 25.3849C19.1018 25.3349 18.9978 25.2504 18.9247 25.1421C18.8517 25.0337 18.8128 24.9063 18.813 24.7761C18.8133 24.6017 18.8836 24.4346 19.0084 24.3114C19.1333 24.1881 19.3025 24.119 19.479 24.119Z" stroke="white" stroke-width="2" stroke-linecap="round" stroke-linejoin="round"/>
</svg>
