<svg width="12" height="11" viewBox="0 0 12 11" fill="none" xmlns="http://www.w3.org/2000/svg">
<path d="M8.26801 5.45281L10.891 2.9358C11.2061 2.62674 11.3815 2.21089 11.379 1.77852C11.3765 1.34615 11.1964 0.932158 10.8778 0.626421C10.5592 0.320684 10.1278 0.14788 9.67723 0.145517C9.22666 0.143154 8.79329 0.311424 8.47122 0.613802L5.84824 3.1308L3.22526 0.613802C3.06701 0.458591 2.87825 0.335044 2.66991 0.250307C2.46157 0.165569 2.23778 0.121328 2.0115 0.120142C1.78522 0.118955 1.56094 0.160847 1.35165 0.243395C1.14235 0.325942 0.9522 0.447504 0.792194 0.601045C0.632187 0.754587 0.505507 0.937057 0.419484 1.1379C0.33346 1.33873 0.289805 1.55395 0.291041 1.77109C0.292278 1.98823 0.338381 2.20297 0.426687 2.40289C0.514992 2.60282 0.643745 2.78395 0.805491 2.9358L3.42847 5.45281L0.805491 7.9698C0.490382 8.27886 0.315023 8.69471 0.317485 9.12708C0.319947 9.55946 0.500031 9.97345 0.818641 10.2792C1.13725 10.5849 1.56867 10.7577 2.01925 10.7601C2.46982 10.7625 2.90319 10.5942 3.22526 10.2918L5.84824 7.7748L8.47122 10.2918C8.79329 10.5942 9.22666 10.7625 9.67723 10.7601C10.1278 10.7577 10.5592 10.5849 10.8778 10.2792C11.1964 9.97345 11.3765 9.55946 11.379 9.12708C11.3815 8.69471 11.2061 8.27886 10.891 7.9698L8.26801 5.45281Z" fill="#A4E0A4"/>
</svg>
