<svg width="12" height="12" viewBox="0 0 12 12" fill="none" xmlns="http://www.w3.org/2000/svg">
<path d="M8.26789 6.15961L10.8909 3.59512C11.206 3.28023 11.3813 2.85654 11.3789 2.41601C11.3764 1.97548 11.1963 1.55368 10.8777 1.24217C10.5591 0.930669 10.1277 0.754605 9.67712 0.752197C9.22654 0.74979 8.79318 0.921235 8.4711 1.22932L5.84812 3.7938L3.22514 1.22932C3.06689 1.07118 2.87813 0.9453 2.66979 0.858964C2.46145 0.772628 2.23766 0.727552 2.01138 0.726343C1.7851 0.725134 1.56082 0.767816 1.35153 0.851921C1.14223 0.936026 0.952078 1.05988 0.792072 1.21632C0.632065 1.37276 0.505385 1.55867 0.419362 1.7633C0.333338 1.96792 0.289683 2.1872 0.290919 2.40844C0.292156 2.62967 0.338259 2.84847 0.426565 3.05216C0.514871 3.25586 0.643624 3.4404 0.805369 3.59512L3.42835 6.15961L0.805369 8.72409C0.49026 9.03898 0.314901 9.46268 0.317363 9.90321C0.319825 10.3437 0.499909 10.7655 0.81852 11.077C1.13713 11.3885 1.56855 11.5646 2.01913 11.567C2.4697 11.5694 2.90307 11.398 3.22514 11.0899L5.84812 8.52541L8.4711 11.0899C8.79318 11.398 9.22654 11.5694 9.67712 11.567C10.1277 11.5646 10.5591 11.3885 10.8777 11.077C11.1963 10.7655 11.3764 10.3437 11.3789 9.90321C11.3813 9.46268 11.206 9.03898 10.8909 8.72409L8.26789 6.15961Z" fill="#BCB14C"/>
</svg>
